<svg width="113" height="114" viewBox="0 0 113 114" fill="none" xmlns="http://www.w3.org/2000/svg">
<g filter="url(#filter0_d_685_173)">
<rect x="25.269" y="38.2501" width="48" height="48" rx="9.73913" transform="rotate(-22 25.269 38.2501)" fill="#F480D5"/>
<rect x="25.7218" y="38.4423" width="47.3043" height="47.3043" rx="9.3913" transform="rotate(-22 25.7218 38.4423)" stroke="#F480D5" stroke-width="0.695652"/>
</g>
<rect x="36.1892" y="43.2729" width="32.2087" height="30.5043" rx="5.21739" transform="rotate(-22 36.1892 43.2729)" fill="white" stroke="#F480D5" stroke-width="0.695652"/>
<g clip-path="url(#clip0_685_173)">
<path d="M65.4702 57.447C65.4681 57.6514 65.4098 57.9174 65.3504 58.1365C64.9347 59.6774 63.196 61.38 60.8027 61.172C58.6337 60.9839 56.8863 59.9044 56.9167 58.4422C56.9471 56.9801 58.7365 55.8311 60.9128 55.8764C63.0891 55.9216 65.4869 55.9845 65.4702 57.447Z" fill="#F480D5"/>
<path d="M60.9077 56.1219C59.7386 56.0976 57.0639 56.3656 56.4516 56.3529C55.3699 56.3304 54.4785 56.9909 54.4611 57.8285C54.4527 58.2314 54.6516 58.5996 54.9767 58.878C54.9767 58.878 55.6879 59.6216 57.0036 59.2994C57.5794 59.1582 58.5345 58.041 60.178 57.8946C60.9966 57.8214 62.5135 58.485 65.2021 58.5561C65.3228 58.3101 65.3503 58.138 65.3503 58.138C65.3807 56.6744 63.084 56.1672 60.9077 56.1219Z" fill="#F480D5"/>
<path d="M65.3503 58.1366C65.3503 58.1366 66.9339 57.8495 67.9413 56.5803C69.1156 55.1 68.9989 53.4874 68.9989 53.4874C70.2021 51.3453 68.7251 49.2825 68.7251 49.2825C68.6218 46.9926 67.2277 46.0158 67.2277 46.0158C66.3553 43.8154 64.337 43.1868 64.337 43.1868C62.7815 41.2886 59.9519 41.2897 59.9519 41.2897C59.9519 41.2897 57.3221 40.2634 53.6617 41.2795C53.0564 41.4475 51.0317 41.8266 49.5384 42.6985C44.8321 45.4468 44.3882 49.8758 44.4381 50.5985C44.7146 54.6373 47.5279 55.4182 49.3243 55.8767C49.7215 57.0285 51.2273 59.167 54.0264 58.4429C57.4687 57.9127 58.9341 56.9196 59.7768 56.9371C60.6194 56.9546 62.9474 57.906 65.3503 58.1366Z" fill="#F4ABBA"/>
<path d="M56.8109 51.4742C58.5108 50.6029 59.4202 50.7064 60.2231 50.796C60.4782 50.8245 60.7198 50.8475 60.9646 50.8512C62.3978 50.8485 63.5707 50.269 64.0963 49.6955C64.1567 49.6241 64.1871 49.5322 64.1812 49.4389C64.1752 49.3456 64.1334 49.2582 64.0645 49.195C63.9956 49.1319 63.9049 49.0978 63.8115 49.1C63.718 49.1023 63.629 49.1406 63.5632 49.2069C63.1581 49.6493 62.1723 50.1265 60.963 50.1288C60.7462 50.1308 60.5293 50.1046 60.3045 50.079C59.4433 49.9809 58.3738 49.8604 56.4812 50.8316C55.9956 51.0809 55.3351 51.1632 54.6202 51.2206C53.0814 48.8979 54.0775 46.9234 54.3603 46.454C54.387 46.456 54.4128 46.4652 54.4402 46.4658C54.729 46.4718 55.0208 46.407 55.2867 46.2638C55.3678 46.2167 55.4274 46.1399 55.4529 46.0497C55.4784 45.9594 55.4678 45.8628 55.4233 45.7803C55.3789 45.6977 55.3041 45.6357 55.2147 45.6073C55.1254 45.5789 55.0285 45.5864 54.9445 45.6282C54.7148 45.7485 54.4481 45.7777 54.1977 45.71C53.9474 45.6422 53.7318 45.4825 53.5941 45.2627C53.5419 45.1859 53.4622 45.1321 53.3715 45.1125C53.2807 45.0929 53.1859 45.109 53.1067 45.1574C53.0275 45.2059 52.97 45.283 52.9462 45.3727C52.9224 45.4625 52.934 45.5579 52.9787 45.6393C53.1443 45.9107 53.3812 46.1172 53.6507 46.2579C53.2586 47.014 52.5027 49.008 53.8149 51.2826C52.8569 51.3566 51.8966 51.4717 51.1371 51.9391C50.6033 52.2736 50.1347 52.7022 49.7542 53.2042C49.3016 53.1167 47.6472 52.6727 47.3953 50.8211C47.5787 50.6848 47.7284 50.503 47.8234 50.2767C47.8418 50.2329 47.8514 50.186 47.8516 50.1386C47.8518 50.0912 47.8427 50.0442 47.8248 50.0002C47.8069 49.9563 47.7805 49.9164 47.7471 49.8827C47.7137 49.849 47.674 49.8222 47.6303 49.8038C47.5866 49.7855 47.5396 49.7759 47.4922 49.7757C47.4448 49.7754 47.3978 49.7845 47.3539 49.8025C47.31 49.8204 47.27 49.8468 47.2363 49.8802C47.2026 49.9136 47.1758 49.9533 47.1575 49.997C47.1287 50.0724 47.0838 50.1406 47.026 50.1969C46.9682 50.2532 46.8988 50.2962 46.8227 50.323C46.7457 50.3467 46.6645 50.3536 46.5846 50.3432C46.5046 50.3328 46.4279 50.3054 46.3595 50.2628C46.3185 50.2389 46.2732 50.2233 46.2263 50.2169C46.1793 50.2105 46.1315 50.2134 46.0856 50.2255C45.993 50.2498 45.9138 50.31 45.8656 50.3927C45.8173 50.4754 45.8038 50.5739 45.8282 50.6666C45.8526 50.7592 45.9127 50.8384 45.9954 50.8866C46.1981 51.005 46.4164 51.0673 46.6345 51.0718C46.6612 51.0724 46.6867 51.0607 46.7135 51.0598C47.021 52.8093 48.382 53.6033 49.3513 53.8553C49.2182 54.1241 49.1314 54.4134 49.0944 54.7111C49.084 54.8062 49.1118 54.9017 49.1717 54.9763C49.2317 55.051 49.3188 55.0988 49.414 55.1092L49.4465 55.1114C49.5367 55.1132 49.6244 55.0812 49.6922 55.0217C49.7601 54.9621 49.8031 54.8793 49.8129 54.7896C49.9091 53.9153 50.7636 53.0178 51.5159 52.5531C52.2213 52.1192 53.2421 52.0458 54.2303 51.9746C55.1889 51.9071 56.0946 51.8421 56.8109 51.4742ZM66.1236 50.5814C66.0759 50.6645 66.0632 50.7632 66.0882 50.8557C66.1132 50.9482 66.174 51.027 66.2571 51.0747C66.3402 51.1224 66.4389 51.1351 66.5314 51.1101C66.6239 51.085 66.7027 51.0243 66.7504 50.9412C66.7646 50.9169 68.1322 48.4784 65.7023 46.77C65.6239 46.7149 65.5269 46.6932 65.4325 46.7097C65.3382 46.7262 65.2542 46.7794 65.1991 46.8578C65.144 46.9362 65.1223 47.0332 65.1388 47.1276C65.1553 47.2219 65.2085 47.3059 65.2869 47.361C67.1693 48.6845 66.1671 50.5043 66.1236 50.5814ZM51.2786 44.4402C51.3359 44.4414 51.3926 44.429 51.4441 44.4039C51.4956 44.3788 51.5405 44.3419 51.5749 44.2961C52.6522 42.8615 54.0917 43.3898 54.1526 43.4142C54.2409 43.4454 54.3379 43.4411 54.4231 43.4021C54.5083 43.3632 54.575 43.2926 54.6091 43.2054C54.6433 43.1182 54.6422 43.0211 54.6062 42.9347C54.5701 42.8482 54.5018 42.7792 54.4158 42.7421C53.728 42.4706 52.1288 42.3565 50.9973 43.8629C50.9576 43.9161 50.9333 43.9791 50.927 44.0452C50.9208 44.1112 50.9329 44.1777 50.9619 44.2373C50.991 44.297 51.0359 44.3475 51.0918 44.3832C51.1476 44.419 51.2123 44.4387 51.2786 44.4402ZM60.7458 43.2732C62.3551 43.1759 63.0616 44.3558 63.0937 44.4114C63.1405 44.495 63.2187 44.5566 63.3109 44.5827C63.3566 44.5956 63.4044 44.5993 63.4515 44.5938C63.4986 44.5882 63.5442 44.5734 63.5856 44.5502C63.6271 44.527 63.6635 44.4959 63.6929 44.4586C63.7223 44.4214 63.744 44.3787 63.7569 44.333C63.7698 44.2873 63.7736 44.2395 63.768 44.1924C63.7624 44.1453 63.7476 44.0997 63.7245 44.0583C63.6868 43.9917 62.7902 42.4366 60.7044 42.5521C60.6571 42.5549 60.6108 42.5669 60.5681 42.5875C60.5253 42.6081 60.4871 42.637 60.4556 42.6724C60.3918 42.7439 60.3591 42.8377 60.3646 42.9334C60.3701 43.029 60.4133 43.1185 60.4848 43.1822C60.5563 43.246 60.6502 43.2787 60.7458 43.2732ZM67.1333 53.9607C66.9559 53.9469 66.7573 54.0837 66.7372 54.2826C66.7355 54.2956 66.5952 55.5214 65.3237 55.9104C65.2405 55.9346 65.1689 55.9879 65.1219 56.0606C65.0749 56.1333 65.0556 56.2205 65.0676 56.3062C65.0796 56.392 65.122 56.4705 65.1872 56.5275C65.2523 56.5846 65.3358 56.6162 65.4224 56.6167C65.4606 56.6175 65.4988 56.6122 65.5354 56.601C67.2598 56.0749 67.4487 54.4274 67.4559 54.3575C67.4608 54.3103 67.4564 54.2625 67.4429 54.217C67.4293 54.1715 67.4069 54.129 67.3769 54.0922C67.347 54.0553 67.31 54.0247 67.2682 54.0022C67.2264 53.9796 67.1806 53.9655 67.1333 53.9607Z" fill="#F480D5"/>
<path d="M49.3345 50.0806C49.3194 50.1266 49.3136 50.1752 49.3177 50.2235C49.3217 50.2718 49.3354 50.3188 49.3579 50.3617C49.3805 50.4046 49.4115 50.4425 49.449 50.4731C49.4865 50.5038 49.5298 50.5266 49.5763 50.5402C49.6229 50.5538 49.6716 50.5579 49.7198 50.5522C49.7679 50.5465 49.8144 50.5312 49.8565 50.5072C49.8986 50.4832 49.9354 50.4509 49.9648 50.4124C49.9941 50.3738 50.0155 50.3297 50.0274 50.2828C50.1022 50.034 50.2683 49.8228 50.4924 49.6916C50.7165 49.5604 50.982 49.5189 51.2355 49.5754C51.2817 49.5861 51.3296 49.5876 51.3764 49.5798C51.4232 49.5719 51.4679 49.555 51.5082 49.5299C51.5484 49.5047 51.5833 49.4719 51.6109 49.4333C51.6384 49.3947 51.6581 49.3511 51.6688 49.3049C51.6795 49.2586 51.6809 49.2108 51.6731 49.164C51.6653 49.1172 51.6484 49.0724 51.6232 49.0322C51.5981 48.992 51.5653 48.9571 51.5267 48.9295C51.4881 48.902 51.4444 48.8823 51.3982 48.8716C51.099 48.8042 50.7872 48.8192 50.4958 48.9149C49.6838 47.4576 49.8772 46.0415 49.8797 46.0263C49.8944 45.9317 49.8709 45.8351 49.8144 45.7578C49.7579 45.6805 49.673 45.6288 49.5784 45.6141C49.4841 45.6 49.388 45.6235 49.3109 45.6796C49.2337 45.7357 49.1818 45.8199 49.1662 45.914C49.1553 45.9838 48.9292 47.5821 49.8645 49.2616C49.6131 49.4782 49.4291 49.7625 49.3345 50.0806ZM57.4436 48.4649C57.5906 48.3369 57.7804 48.2692 57.9752 48.2752C58.17 48.2813 58.3553 48.3607 58.494 48.4976C58.5614 48.5657 58.653 48.6042 58.7488 48.6047C58.8445 48.6052 58.9366 48.5676 59.0047 48.5003C59.0728 48.433 59.1115 48.3414 59.1121 48.2456C59.1127 48.1499 59.0753 48.0578 59.0081 47.9896C58.8482 47.831 58.6536 47.7119 58.4395 47.6419C58.6685 46.9127 58.5908 46.5853 58.4049 45.971C58.3682 45.8508 58.3329 45.7302 58.2991 45.6091L58.2789 45.5364C58.0342 44.6587 57.8722 44.0796 58.3887 43.2777C58.4406 43.1971 58.4583 43.0993 58.4381 43.0057C58.4178 42.912 58.3612 42.8303 58.2806 42.7784C58.2001 42.7266 58.1022 42.7088 58.0086 42.7291C57.915 42.7493 57.8333 42.806 57.7814 42.8865C57.0887 43.9615 57.3179 44.7818 57.5835 45.7315L57.6037 45.8041C57.6431 45.9446 57.6798 46.0698 57.7136 46.1799C57.8805 46.7331 57.9309 46.9183 57.699 47.5781C57.425 47.6212 57.1692 47.7423 56.9621 47.9268C56.8933 47.9913 56.8524 48.0802 56.8482 48.1745C56.8441 48.2688 56.877 48.3609 56.9399 48.4312C57.0028 48.5015 57.0907 48.5444 57.1849 48.5507C57.279 48.557 57.3719 48.5262 57.4436 48.4649ZM62.0844 46.4051C62.2988 46.4102 62.5117 46.3675 62.7075 46.2801C62.795 46.2411 62.8634 46.169 62.8977 46.0795C62.9321 45.9901 62.9294 45.8907 62.8904 45.8032C62.8514 45.7157 62.7793 45.6472 62.6899 45.6129C62.6004 45.5786 62.501 45.5813 62.4135 45.6202C62.2344 45.698 62.0324 45.705 61.8483 45.64C61.6642 45.5749 61.5115 45.4425 61.421 45.2695C61.4005 45.2256 61.3713 45.1864 61.3353 45.1541C61.2992 45.1217 61.2571 45.097 61.2113 45.0813C61.1655 45.0655 61.117 45.0592 61.0687 45.0626C61.0205 45.066 60.9733 45.0791 60.9302 45.101C60.8871 45.123 60.8488 45.1534 60.8176 45.1905C60.7865 45.2275 60.7631 45.2705 60.7489 45.3168C60.7347 45.363 60.7299 45.4117 60.7349 45.4598C60.7398 45.508 60.7544 45.5547 60.7778 45.5971C60.9027 45.8424 61.0923 46.0377 61.3148 46.1753C60.9074 47.1095 61.1068 48.1149 61.2756 48.6493C61.2884 48.6962 61.3105 48.74 61.3406 48.7781C61.3707 48.8162 61.4082 48.8479 61.4508 48.8712C61.4934 48.8945 61.5403 48.9089 61.5886 48.9137C61.637 48.9184 61.6858 48.9134 61.7321 48.8989C61.7785 48.8843 61.8214 48.8606 61.8583 48.829C61.8953 48.7975 61.9255 48.7589 61.9472 48.7154C61.9688 48.6719 61.9815 48.6245 61.9844 48.576C61.9874 48.5276 61.9805 48.479 61.9642 48.4332C61.8504 48.0711 61.6339 47.1579 62.0052 46.3926C62.0326 46.3947 62.0577 46.4046 62.0844 46.4051ZM65.4065 53.2855C65.4048 53.238 65.3936 53.1914 65.3737 53.1483C65.3538 53.1051 65.3255 53.0664 65.2905 53.0343C65.2554 53.0022 65.2144 52.9773 65.1697 52.9612C65.125 52.9451 65.0776 52.938 65.0301 52.9403C64.8568 52.9487 64.6834 52.9227 64.5201 52.8639C64.3568 52.8051 64.2067 52.7146 64.0784 52.5977C63.9502 52.4807 63.8463 52.3395 63.7728 52.1823C63.6992 52.0251 63.6574 51.8548 63.6499 51.6814C63.6435 51.5864 63.6006 51.4975 63.5302 51.4334C63.4597 51.3693 63.3672 51.335 63.272 51.3377C63.2246 51.3399 63.1781 51.3514 63.1352 51.3716C63.0922 51.3918 63.0537 51.4203 63.0218 51.4554C62.9899 51.4905 62.9652 51.5315 62.9491 51.5761C62.9331 51.6208 62.926 51.6682 62.9282 51.7155C62.949 52.1422 63.1034 52.5297 63.3439 52.8475C62.7491 53.5185 61.9848 53.6969 61.5599 53.7379C61.1842 53.7749 60.8572 53.7298 60.479 53.6771C60.1325 53.6302 59.7407 53.5766 59.2544 53.5809L59.2508 53.5815C59.2406 53.3747 59.1978 53.0726 59.0463 52.8188C58.994 52.7435 58.915 52.6908 58.8254 52.6715C58.7357 52.6522 58.6421 52.6676 58.5634 52.7147C58.4847 52.7618 58.4268 52.837 58.4014 52.9252C58.3761 53.0133 58.3851 53.1078 58.4268 53.1895C58.5203 53.3467 58.5332 53.5948 58.5307 53.7154C58.164 53.8385 57.8452 54.024 57.5569 54.2037C57.0417 54.5238 56.6355 54.7769 56.0354 54.6286C55.4921 54.4923 54.946 54.4557 54.4811 54.511C54.4127 54.3283 54.3031 54.1093 54.1304 53.9388C54.0621 53.8716 53.97 53.8342 53.8742 53.8349C53.7784 53.8357 53.6868 53.8744 53.6196 53.9426C53.5523 54.0109 53.515 54.103 53.5157 54.1988C53.5164 54.2946 53.5551 54.3862 53.6234 54.4534C53.6843 54.5132 53.7316 54.5995 53.7695 54.6855C52.9663 54.9967 52.5556 55.5365 52.5363 55.5628C52.4968 55.6159 52.4728 55.6789 52.4668 55.7447C52.4607 55.8106 52.4729 55.8769 52.5021 55.9363C52.5312 55.9957 52.5761 56.0459 52.6319 56.0815C52.6877 56.117 52.7522 56.1366 52.8183 56.1379C52.8754 56.1394 52.932 56.1272 52.9835 56.1026C53.035 56.0779 53.0799 56.0414 53.1145 55.996C53.1183 55.9903 53.5257 55.4678 54.3122 55.2696C54.7188 55.1668 55.2985 55.1883 55.8612 55.3286C56.0186 55.3679 56.1649 55.3833 56.3071 55.3884C56.371 55.5472 56.3931 55.7348 56.3952 55.8041C56.3985 55.8963 56.4369 55.9838 56.5026 56.0486C56.5683 56.1133 56.6562 56.1505 56.7485 56.1525L56.768 56.1521C56.8633 56.1491 56.9536 56.1084 57.0191 56.039C57.0846 55.9695 57.1199 55.877 57.1174 55.7816C57.109 55.6131 57.0809 55.4463 57.0338 55.2843C57.3692 55.1706 57.6626 54.9882 57.9385 54.817C58.3572 54.5562 58.7531 54.3095 59.2639 54.3035C59.6917 54.2972 60.0432 54.3457 60.3825 54.3925C60.7239 54.4393 61.0599 54.4723 61.4315 54.4583C61.4934 54.6424 61.4833 54.8863 61.4714 54.9677C61.4643 55.0184 61.4679 55.0701 61.4821 55.1193C61.4963 55.1685 61.5208 55.2142 61.5539 55.2533C61.587 55.2924 61.6279 55.324 61.6741 55.3461C61.7203 55.3683 61.7707 55.3804 61.8219 55.3817C61.9094 55.3834 61.9946 55.3532 62.0615 55.2968C62.1285 55.2404 62.1726 55.1616 62.1858 55.075C62.2169 54.8388 62.2075 54.5989 62.1579 54.3658C62.8204 54.2047 63.4184 53.8467 63.8733 53.3389C64.2265 53.5677 64.6423 53.6807 65.0628 53.6619C65.1583 53.6574 65.248 53.6153 65.3124 53.5447C65.3769 53.4742 65.4107 53.381 65.4065 53.2855Z" fill="#F480D5"/>
</g>
<defs>
<filter id="filter0_d_685_173" x="0.379539" y="0.944696" width="112.265" height="112.265" filterUnits="userSpaceOnUse" color-interpolation-filters="sRGB">
<feFlood flood-opacity="0" result="BackgroundImageFix"/>
<feColorMatrix in="SourceAlpha" type="matrix" values="0 0 0 0 0 0 0 0 0 0 0 0 0 0 0 0 0 0 127 0" result="hardAlpha"/>
<feOffset dy="5.56522"/>
<feGaussianBlur stdDeviation="13.913"/>
<feColorMatrix type="matrix" values="0 0 0 0 0.825 0 0 0 0 0.300438 0 0 0 0 0.396718 0 0 0 0.26 0"/>
<feBlend mode="normal" in2="BackgroundImageFix" result="effect1_dropShadow_685_173"/>
<feBlend mode="normal" in="SourceGraphic" in2="effect1_dropShadow_685_173" result="shape"/>
</filter>
<clipPath id="clip0_685_173">
<rect width="26" height="26" fill="white" transform="translate(44.2837 37.7428) rotate(1.19134)"/>
</clipPath>
</defs>
</svg>
